<svg xmlns="http://www.w3.org/2000/svg" xmlns:inkscape="http://www.inkscape.org/namespaces/inkscape" xmlns:xlink="http://www.w3.org/1999/xlink" width="1920px" height="1080px">

<g inkscape:groupmode="layer" id="Sat Nov  8 13:31:55 2014">

<g id="Circle">  <!-- start Circle -->

<g id="caras_bordes.Circle">
  <polygon fill="rgb(137,200,22)" points="109.5852,382.9405 85.6967,406.829 114.1977,435.33 138.0177,411.373 " opacity="0.9" />
  <polygon fill="rgb(137,201,22)" points="109.5852,382.9405 81.1527,354.508 57.1957,378.328 85.6967,406.829 " opacity="0.9" />
  <polygon fill="rgb(138,202,22)" points="286.8194,430.4303 247.9798,440.8373 256.63,473.4947 295.5632,463.0626 " opacity="0.9" />
  <polygon fill="rgb(138,202,22)" points="62.0954,205.7063 29.4632,196.9625 19.0311,235.8956 51.6884,244.5459 " opacity="0.9" />
  <polygon fill="rgb(138,203,23)" points="286.8194,430.4303 295.5632,463.0626 334.4963,452.6305 325.6589,420.0233 " opacity="0.9" />
  <polygon fill="rgb(138,203,23)" points="62.0954,205.7063 72.5025,166.8668 39.8953,158.0294 29.4632,196.9625 " opacity="0.9" />
  <polygon fill="rgb(140,206,23)" points="416.5638,300.6859 406.1568,339.5254 438.764,348.3628 449.1961,309.4297 " opacity="0.9" />
  <polygon fill="rgb(140,206,23)" points="191.8399,75.9619 183.0961,43.3296 144.1629,53.7617 153.0003,86.3689 " opacity="0.9" />
  <polygon fill="rgb(141,206,23)" points="416.5638,300.6859 449.1961,309.4297 459.6282,270.4966 426.9709,261.8464 " opacity="0.9" />
  <polygon fill="rgb(141,207,23)" points="191.8399,75.9619 230.6794,65.5548 222.0292,32.8975 183.0961,43.3296 " opacity="0.9" />
  <polygon fill="rgb(142,208,23)" points="369.0742,123.4517 397.5067,151.8842 421.4637,128.0642 392.9626,99.5632 " opacity="0.9" />
  <polygon fill="rgb(142,208,23)" points="369.0742,123.4517 392.9626,99.5632 364.4617,71.0622 340.6417,95.0192 " opacity="0.9" />
  <polygon fill="rgb(145,213,24)" points="109.5852,382.9405 138.0177,411.373 161.8377,387.416 133.4737,359.052 " opacity="0.9" />
  <polygon fill="rgb(145,213,24)" points="109.5852,382.9405 133.4737,359.052 105.1097,330.688 81.1527,354.508 " opacity="0.9" />
  <polygon fill="rgb(146,214,24)" points="286.8194,430.4303 278.0756,397.798 239.3296,408.1799 247.9798,440.8373 " opacity="0.9" />
  <polygon fill="rgb(146,214,24)" points="62.0954,205.7063 51.6884,244.5459 84.3458,253.1961 94.7277,214.4501 " opacity="0.9" />
  <polygon fill="rgb(146,215,24)" points="286.8194,430.4303 325.6589,420.0233 316.8215,387.416 278.0756,397.798 " opacity="0.9" />
  <polygon fill="rgb(147,215,24)" points="62.0954,205.7063 94.7277,214.4501 105.1097,175.7041 72.5025,166.8668 " opacity="0.9" />
  <polygon fill="rgb(149,218,24)" points="416.5638,300.6859 383.9315,291.9421 373.5496,330.688 406.1568,339.5254 " opacity="0.9" />
  <polygon fill="rgb(149,218,24)" points="191.8399,75.9619 153.0003,86.3689 161.8377,118.9761 200.5837,108.5941 " opacity="0.9" />
  <polygon fill="rgb(149,219,24)" points="416.5638,300.6859 426.9709,261.8464 394.3135,253.1961 383.9315,291.9421 " opacity="0.9" />
  <polygon fill="rgb(149,219,24)" points="191.8399,75.9619 200.5837,108.5941 239.3297,98.2122 230.6794,65.5548 " opacity="0.9" />
  <polygon fill="rgb(150,220,24)" points="369.0742,123.4517 345.1856,147.3402 373.5496,175.7042 397.5067,151.8842 " opacity="0.9" />
  <polygon fill="rgb(150,220,24)" points="369.0742,123.4517 340.6417,95.0192 316.8217,118.9762 345.1856,147.3402 " opacity="0.9" />
  <polygon fill="rgb(152,223,25)" points="150.6759,341.8499 133.4737,359.052 161.8377,387.416 174.4306,365.6046 " opacity="0.9" />
  <polygon fill="rgb(152,223,25)" points="150.6759,341.8499 126.9212,318.0951 105.1097,330.688 133.4737,359.052 " opacity="0.9" />
  <polygon fill="rgb(152,223,25)" points="206.8801,374.2994 174.4306,365.6046 161.8377,387.416 200.5837,397.798 " opacity="0.9" />
  <polygon fill="rgb(152,223,25)" points="118.2263,285.6456 94.7277,291.942 105.1097,330.688 126.9212,318.0951 " opacity="0.9" />
  <polygon fill="rgb(153,224,25)" points="206.8801,374.2994 200.5837,397.798 239.3296,408.1799 239.3296,382.9942 " opacity="0.9" />
  <polygon fill="rgb(153,224,25)" points="118.2263,285.6456 109.5315,253.1961 84.3458,253.1961 94.7277,291.942 " opacity="0.9" />
  <polygon fill="rgb(153,224,25)" points="271.7791,374.2994 239.3296,382.9942 239.3296,408.1799 278.0756,397.798 " opacity="0.9" />
  <polygon fill="rgb(153,225,25)" points="118.2263,220.7465 94.7277,214.4501 84.3458,253.1961 109.5315,253.1961 " opacity="0.9" />
  <polygon fill="rgb(154,225,25)" points="271.7791,374.2994 278.0756,397.798 316.8215,387.416 304.2287,365.6046 " opacity="0.9" />
  <polygon fill="rgb(154,225,25)" points="118.2263,220.7465 126.9211,188.297 105.1097,175.7041 94.7277,214.4501 " opacity="0.9" />
  <polygon fill="rgb(154,226,25)" points="327.9834,341.8499 304.2287,365.6046 316.8215,387.416 345.1855,359.052 " opacity="0.9" />
  <polygon fill="rgb(154,226,25)" points="150.6759,164.5423 133.4737,147.3401 105.1097,175.7041 126.9211,188.297 " opacity="0.9" />
  <polygon fill="rgb(155,227,25)" points="327.9834,341.8499 345.1855,359.052 373.5496,330.688 351.7381,318.0952 " opacity="0.9" />
  <polygon fill="rgb(155,227,25)" points="150.6759,164.5423 174.4306,140.7876 161.8377,118.9761 133.4737,147.3401 " opacity="0.9" />
  <polygon fill="rgb(155,228,25)" points="360.4329,285.6456 351.7381,318.0952 373.5496,330.688 383.9315,291.9421 " opacity="0.9" />
  <polygon fill="rgb(156,228,25)" points="206.8801,132.0927 200.5837,108.5941 161.8377,118.9761 174.4306,140.7876 " opacity="0.9" />
  <polygon fill="rgb(156,229,25)" points="360.4329,285.6456 383.9315,291.9421 394.3135,253.1961 369.1278,253.1961 " opacity="0.9" />
  <polygon fill="rgb(156,229,25)" points="206.8801,132.0927 239.3297,123.3979 239.3297,98.2122 200.5837,108.5941 " opacity="0.9" />
  <polygon fill="rgb(156,229,25)" points="360.433,220.7466 369.1278,253.1961 394.3135,253.1961 383.9315,214.4502 " opacity="0.9" />
  <polygon fill="rgb(157,230,26)" points="271.7792,132.0928 278.0757,108.5942 239.3297,98.2122 239.3297,123.3979 " opacity="0.9" />
  <polygon fill="rgb(157,230,26)" points="360.433,220.7466 383.9315,214.4502 373.5496,175.7042 351.7382,188.2971 " opacity="0.9" />
  <polygon fill="rgb(157,230,26)" points="271.7792,132.0928 304.2288,140.7876 316.8217,118.9762 278.0757,108.5942 " opacity="0.9" />
  <polygon fill="rgb(157,230,26)" points="327.9835,164.5423 351.7382,188.2971 373.5496,175.7042 345.1856,147.3402 " opacity="0.9" />
  <polygon fill="rgb(157,230,26)" points="327.9835,164.5423 345.1856,147.3402 316.8217,118.9762 304.2288,140.7876 " opacity="0.9" />
  <polygon fill="rgb(158,232,26)" points="150.6759,341.8499 174.4306,365.6046 188.7754,340.7587 167.878,324.6477 " opacity="0.9" />
  <polygon fill="rgb(158,232,26)" points="150.6759,341.8499 167.878,324.6477 151.7671,303.7504 126.9212,318.0951 " opacity="0.9" />
  <polygon fill="rgb(158,232,26)" points="206.8801,374.2994 213.1765,350.8008 188.7754,340.7587 174.4306,365.6046 " opacity="0.9" />
  <polygon fill="rgb(158,232,26)" points="118.2263,285.6456 126.9212,318.0951 151.7671,303.7504 141.7249,279.3492 " opacity="0.9" />
  <polygon fill="rgb(158,232,26)" points="206.8801,374.2994 239.3296,382.9942 239.3296,354.3046 213.1765,350.8008 " opacity="0.9" />
  <polygon fill="rgb(159,232,26)" points="118.2263,285.6456 141.7249,279.3492 138.2211,253.1961 109.5315,253.1961 " opacity="0.9" />
  <polygon fill="rgb(159,233,26)" points="271.7791,374.2994 265.4827,350.8008 239.3296,354.3046 239.3296,382.9942 " opacity="0.9" />
  <polygon fill="rgb(159,233,26)" points="118.2263,220.7465 109.5315,253.1961 138.2211,253.1961 141.7249,227.043 " opacity="0.9" />
  <polygon fill="rgb(159,234,26)" points="271.7791,374.2994 304.2287,365.6046 289.8839,340.7587 265.4827,350.8008 " opacity="0.9" />
  <polygon fill="rgb(159,234,26)" points="118.2263,220.7465 141.7249,227.043 151.7671,202.6418 126.9211,188.297 " opacity="0.9" />
  <polygon fill="rgb(160,234,26)" points="327.9834,341.8499 310.7812,324.6477 289.8839,340.7587 304.2287,365.6046 " opacity="0.9" />
  <polygon fill="rgb(160,235,26)" points="150.6759,164.5423 126.9211,188.297 151.7671,202.6418 167.878,181.7445 " opacity="0.9" />
  <polygon fill="rgb(160,235,26)" points="327.9834,341.8499 351.7381,318.0952 326.8922,303.7504 310.7812,324.6477 " opacity="0.9" />
  <polygon fill="rgb(161,235,26)" points="150.6759,164.5423 167.878,181.7445 188.7754,165.6335 174.4306,140.7876 " opacity="0.9" />
  <polygon fill="rgb(161,236,26)" points="360.4329,285.6456 336.9344,279.3492 326.8922,303.7504 351.7381,318.0952 " opacity="0.9" />
  <polygon fill="rgb(161,236,26)" points="206.8801,132.0927 174.4306,140.7876 188.7754,165.6335 213.1765,155.5913 " opacity="0.9" />
  <polygon fill="rgb(162,237,26)" points="360.4329,285.6456 369.1278,253.1961 340.4382,253.1961 336.9344,279.3492 " opacity="0.9" />
  <polygon fill="rgb(162,237,26)" points="206.8801,132.0927 213.1765,155.5913 239.3297,152.0875 239.3297,123.3979 " opacity="0.9" />
  <polygon fill="rgb(162,237,26)" points="360.433,220.7466 336.9344,227.043 340.4382,253.1961 369.1278,253.1961 " opacity="0.9" />
  <polygon fill="rgb(162,238,26)" points="271.7792,132.0928 239.3297,123.3979 239.3297,152.0875 265.4828,155.5914 " opacity="0.9" />
  <polygon fill="rgb(162,238,26)" points="360.433,220.7466 351.7382,188.2971 326.8923,202.6418 336.9344,227.043 " opacity="0.9" />
  <polygon fill="rgb(162,238,26)" points="271.7792,132.0928 265.4828,155.5914 289.884,165.6335 304.2288,140.7876 " opacity="0.9" />
  <polygon fill="rgb(162,238,26)" points="327.9835,164.5423 310.7813,181.7445 326.8923,202.6418 351.7382,188.2971 " opacity="0.9" />
  <polygon fill="rgb(162,238,26)" points="327.9835,164.5423 304.2288,140.7876 289.884,165.6335 310.7813,181.7445 " opacity="0.9" />
</g>

</g>  <!-- end Circle -->

</g>

</svg>

